<svg viewBox="0 0 128 128" xmlns="http://www.w3.org/2000/svg"><path fill="#73be4a" d="M25.6 101.6l11.7-21.5L15 105.8c3.2 3.4 6.7 5-1.7-1.1l12.3-3.1z"/><path fill="#4caf50" d="M100.6 105.8l-21-25.5 11.8 21.1 12.3 3.1c-3.3 3.5-6.7 5.1-3.1 1.3z"/><path fill="#2e7d32" d="M64 126c17.2 0 32.3-9 40.6-22.6L80.2 76H47.8l-24 27.4C32 116.6 47 126 64 126z"/><path fill="#7cb342" d="M37.4 80.2l-24.1-27c-5.2 8-8.3 17.3-8.3 27.3 0 9.6 2.8 18.5 7.6 26.1l24.8-26.4z"/><path fill="#aed581" d="M64 2C46.5 2 31.2 11.4 23 25.4L47.7 52h32.6l24.4-26.3C96.6 11.6 81.4 2 64 2z"/><path fill="#689f38" d="M104.7 25.7l-24 26.5L91.4 80l24 27.2c5-7.9 7.6-17.1 7.6-26.7-.1-19.8-7-27.5-18.3-54.8z"/><rect width="40" height="40" x="44" y="44" fill="#fff" rx="3"/><path fill="#1a237e" d="M52 52h24l-12 24z"/></svg>