<svg viewBox="0 0 128 128" xmlns="http://www.w3.org/2000/svg"><linearGradient id="a" x1="70.252" x2="41.862" y1="1237.399" y2="1309.259" gradientTransform="matrix(.563 0 0 -.568 -29.215 748.404)" gradientUnits="userSpaceOnUse"><stop offset="0" stop-color="#5A9FD4"/><stop offset="1" stop-color="#306998"/></linearGradient><path fill="url(#a)" d="M63.391 1.988c-4.222.02-8.252.379-11.8 1.007-10.45 1.846-12.346 5.71-12.346 12.837v9.411h24.693v3.137h-33.96c-7.176 0-13.46 4.313-15.426 12.521-2.268 9.405-2.368 15.275 0 25.096 1.755 7.311 5.947 12.519 13.124 12.519h8.491v-11.282c0-8.151 7.051-15.34 15.426-15.34h24.665c6.866 0 12.346-5.655 12.346-12.548v-23.51c0-6.693-5.646-11.72-12.346-12.836-4.244-.706-8.645-1.027-12.866-1.008zM50.037 9.557c2.55 0 4.634 2.117 4.634 4.721 0 2.593-2.083 4.69-4.634 4.69-2.56 0-4.633-2.097-4.633-4.69-.001-2.604 2.073-4.72 4.633-4.72z"/><linearGradient id="b" x1="209.474" x2="255.862" y1="1098.811" y2="1024.528" gradientTransform="matrix(.563 0 0 -.568 -29.215 748.404)" gradientUnits="userSpaceOnUse"><stop offset="0" stop-color="#FFD43B"/><stop offset="1" stop-color="#FFE873"/></linearGradient><path fill="url(#b)" d="M91.682 28.38v10.966c0 8.5-7.208 15.655-15.426 15.655h-24.665c-6.756 0-12.346 5.783-12.346 12.549v23.509c0 6.691 5.818 10.628 12.346 12.547 7.816 2.297 15.312 2.713 24.665 0 6.216-1.801 12.346-5.423 12.346-12.547v-9.412h-24.665v-3.138h37.012c7.176 0 9.852-5.005 12.346-12.519 2.578-7.735 2.467-15.174 0-25.096-1.774-7.145-5.161-12.521-12.346-12.521h-9.268zm-13.869 59.665c2.56 0 4.633 2.097 4.633 4.692 0 2.602-2.074 4.72-4.633 4.72-2.55 0-4.633-2.117-4.633-4.72 0-2.595 2.083-4.692 4.633-4.692z"/></svg>