<svg viewBox="0 0 128 128" xmlns="http://www.w3.org/2000/svg"><path d="M96.887 126.171L33.479 97.614.903 72.221a5.8 5.8 0 01-.13-8.895l32.62-25.282L96.887 1.83A7.992 7.992 0 01109 8.737v110.39a8 8 0 01-12.113 6.908zM39.5 64l-20 18.289L39.5 64zm0 0l46-35.705v71.41z" fill="#0065A9"/><path d="M96.887 126.171L33.479 97.614.903 72.221a5.8 5.8 0 01-.13-8.895l32.62-25.282L96.887 1.83A7.992 7.992 0 01109 8.737v110.39a8 8 0 01-12.113 6.908z" fill="#007ACC" opacity=".25"/><path fill="#1F9CF0" d="M96.887 126.171A7.987 7.987 0 01109 119.127V8.737A7.99 7.99 0 0096.887 1.83L39.5 64z"/></svg>